# This file uses centimeters as units for non-parametric coordinates.

mtllib IVRC DustBox.mtl
g default
v 12.333490 -0.000000 1.341120
v 12.183424 -0.000000 1.275309
v 12.033358 -0.000000 1.341120
v 11.971199 -0.000000 1.500000
v 12.033358 -0.000000 1.658880
v 12.183424 -0.000000 1.724691
v 12.333490 -0.000000 1.658880
v 12.395649 -0.000000 1.500000
v 12.483556 -0.000000 1.182239
v 12.183424 -0.000000 1.050618
v 11.883293 -0.000000 1.182239
v 11.758974 -0.000000 1.500000
v 11.883293 -0.000000 1.817761
v 12.183424 -0.000000 1.949382
v 12.483556 -0.000000 1.817761
v 12.607874 -0.000000 1.500000
v 12.633621 -0.000000 1.023359
v 12.183424 -0.000000 0.825928
v 11.733227 -0.000000 1.023359
v 11.546749 -0.000000 1.500000
v 11.733227 -0.000000 1.976641
v 12.183424 -0.000000 2.174073
v 12.633621 -0.000000 1.976641
v 12.820099 -0.000000 1.500000
v 12.890531 2.000000 0.792893
v 12.183424 2.000000 0.500000
v 11.476317 2.000000 0.792893
v 11.183424 2.000000 1.500000
v 11.476317 2.000000 2.207107
v 12.183424 2.000000 2.500000
v 12.890531 2.000000 2.207107
v 13.183424 2.000000 1.500000
v 12.813667 2.000000 0.869319
v 12.183424 2.000000 0.608083
v 11.553181 2.000000 0.869319
v 11.292126 2.000000 1.500000
v 11.553181 2.000000 2.130681
v 12.183424 2.000000 2.391917
v 12.813667 2.000000 2.130681
v 13.074722 2.000000 1.500000
v 12.520665 0.288748 1.162759
v 12.183424 0.288748 1.023600
v 11.846183 0.288748 1.162759
v 11.706606 0.288748 1.500000
v 11.846183 0.288748 1.837241
v 12.183424 0.288748 1.976400
v 12.520665 0.288748 1.837241
v 12.660242 0.288748 1.500000
v 12.183424 0.000000 1.500000
v 12.183424 0.288748 1.500000
vt 0.536828 0.119422
vt 0.500000 0.104167
vt 0.463172 0.119422
vt 0.447917 0.156250
vt 0.463172 0.193078
vt 0.500000 0.208333
vt 0.536828 0.193078
vt 0.552083 0.156250
vt 0.573657 0.082593
vt 0.500000 0.052083
vt 0.426343 0.082593
vt 0.395833 0.156250
vt 0.426343 0.229907
vt 0.500000 0.260417
vt 0.573657 0.229907
vt 0.604167 0.156250
vt 0.610485 0.045765
vt 0.500000 0.000000
vt 0.389515 0.045765
vt 0.343750 0.156250
vt 0.389515 0.266735
vt 0.500000 0.312500
vt 0.610485 0.266735
vt 0.656250 0.156250
vt 0.375000 0.312500
vt 0.406250 0.312500
vt 0.437500 0.312500
vt 0.468750 0.312500
vt 0.500000 0.312500
vt 0.531250 0.312500
vt 0.562500 0.312500
vt 0.593750 0.312500
vt 0.625000 0.312500
vt 0.375000 0.688440
vt 0.406250 0.688440
vt 0.437500 0.688440
vt 0.468750 0.688440
vt 0.500000 0.688440
vt 0.531250 0.688440
vt 0.562500 0.688440
vt 0.593750 0.688440
vt 0.625000 0.688440
vt 0.610485 0.733265
vt 0.500000 0.687500
vt 0.389515 0.733265
vt 0.343750 0.843750
vt 0.389515 0.954235
vt 0.500000 1.000000
vt 0.610485 0.954235
vt 0.656250 0.843750
vt 0.573657 0.770093
vt 0.500000 0.739583
vt 0.426343 0.770093
vt 0.395833 0.843750
vt 0.426343 0.917407
vt 0.500000 0.947917
vt 0.573657 0.917407
vt 0.604167 0.843750
vt 0.536828 0.806922
vt 0.500000 0.791667
vt 0.463172 0.806922
vt 0.447917 0.843750
vt 0.463172 0.880578
vt 0.500000 0.895833
vt 0.536828 0.880579
vt 0.552083 0.843750
vt 0.500000 0.150000
vt 0.500000 0.837500
vn -0.000000 -1.000000 0.000000
vn 0.000000 -1.000000 0.000000
vn 0.000000 -1.000000 0.000000
vn 0.000000 -1.000000 -0.000000
vn 0.000000 -1.000000 0.000000
vn 0.000000 -1.000000 -0.000000
vn 0.000000 -1.000000 -0.000000
vn 0.000000 -1.000000 -0.000000
vn 0.000000 -1.000000 -0.000000
vn 0.000000 -1.000000 -0.000000
vn 0.000000 -1.000000 -0.000000
vn 0.000000 -1.000000 -0.000000
vn -0.000000 -1.000000 0.000000
vn 0.000000 -1.000000 0.000000
vn -0.000000 -1.000000 0.000000
vn 0.000000 -1.000000 -0.000000
vn 0.000000 -1.000000 0.000000
vn 0.000000 -1.000000 0.000000
vn 0.000000 -1.000000 0.000000
vn 0.000000 -1.000000 -0.000000
vn 0.000000 -1.000000 -0.000000
vn 0.000000 -1.000000 -0.000000
vn 0.000000 -1.000000 0.000000
vn 0.000000 -1.000000 -0.000000
vn 0.385614 -0.151369 -0.910159
vn 0.385614 -0.151369 -0.910159
vn 0.385614 -0.151369 -0.910159
vn 0.385614 -0.151369 -0.910159
vn -0.385614 -0.151369 -0.910159
vn -0.385614 -0.151369 -0.910159
vn -0.385614 -0.151369 -0.910159
vn -0.385614 -0.151369 -0.910159
vn -0.914467 -0.163133 -0.370322
vn -0.914467 -0.163133 -0.370323
vn -0.914467 -0.163133 -0.370322
vn -0.914467 -0.163133 -0.370323
vn -0.914467 -0.163133 0.370323
vn -0.914467 -0.163133 0.370323
vn -0.914467 -0.163133 0.370323
vn -0.914467 -0.163133 0.370322
vn -0.385614 -0.151369 0.910159
vn -0.385614 -0.151369 0.910159
vn -0.385614 -0.151369 0.910159
vn -0.385614 -0.151369 0.910159
vn 0.385614 -0.151368 0.910159
vn 0.385614 -0.151368 0.910159
vn 0.385614 -0.151369 0.910159
vn 0.385614 -0.151368 0.910159
vn 0.914466 -0.163133 0.370323
vn 0.914467 -0.163133 0.370323
vn 0.914467 -0.163133 0.370323
vn 0.914467 -0.163133 0.370323
vn 0.914467 -0.163133 -0.370323
vn 0.914467 -0.163133 -0.370323
vn 0.914467 -0.163133 -0.370323
vn 0.914467 -0.163133 -0.370323
vn 0.000000 1.000000 0.000000
vn 0.000000 1.000000 -0.000000
vn 0.000000 0.337465 0.941338
vn -0.665617 0.337538 0.665599
vn 0.000000 1.000000 -0.000000
vn 0.665617 0.337538 0.665599
vn 0.000000 1.000000 0.000000
vn 0.941333 0.337479 0.000000
vn 0.000000 1.000000 0.000000
vn 0.665617 0.337538 -0.665600
vn 0.000000 1.000000 -0.000000
vn 0.000000 0.337465 -0.941338
vn 0.000000 1.000000 -0.000000
vn -0.665617 0.337538 -0.665600
vn 0.000000 1.000000 0.000000
vn -0.941333 0.337479 0.000000
vn 0.000000 0.297393 0.954755
vn -0.675217 0.297186 0.675102
vn 0.675217 0.297186 0.675102
vn 0.954865 0.297039 0.000000
vn 0.675217 0.297186 -0.675102
vn 0.000000 0.297393 -0.954755
vn -0.675217 0.297186 -0.675102
vn -0.954865 0.297039 0.000000
vn 0.000000 -1.000000 0.000000
vn 0.000000 1.000000 0.000000
s 1
g pCylinder5
usemtl blinn3SG
f 1/1/1 2/2/2 10/10/3 9/9/4
f 2/2/2 3/3/5 11/11/6 10/10/3
f 3/3/5 4/4/7 12/12/8 11/11/6
f 4/4/7 5/5/9 13/13/10 12/12/8
f 5/5/9 6/6/11 14/14/12 13/13/10
f 6/6/11 7/7/13 15/15/14 14/14/12
f 7/7/13 8/8/15 16/16/16 15/15/14
f 8/8/15 1/1/1 9/9/4 16/16/16
f 9/9/4 10/10/3 18/18/17 17/17/18
f 10/10/3 11/11/6 19/19/19 18/18/17
f 11/11/6 12/12/8 20/20/20 19/19/19
f 12/12/8 13/13/10 21/21/21 20/20/20
f 13/13/10 14/14/12 22/22/22 21/21/21
f 14/14/12 15/15/14 23/23/23 22/22/22
f 15/15/14 16/16/16 24/24/24 23/23/23
f 16/16/16 9/9/4 17/17/18 24/24/24
s off
f 17/25/25 18/26/26 26/35/27 25/34/28
f 18/26/29 19/27/30 27/36/31 26/35/32
f 19/27/33 20/28/34 28/37/35 27/36/36
f 20/28/37 21/29/38 29/38/39 28/37/40
f 21/29/41 22/30/42 30/39/43 29/38/44
f 22/30/45 23/31/46 31/40/47 30/39/48
f 23/31/49 24/32/50 32/41/51 31/40/52
f 24/32/53 17/33/54 25/42/55 32/41/56
s 2
f 25/49/57 26/48/58 34/56/59 33/57/60
f 26/48/58 27/47/61 35/55/62 34/56/59
f 27/47/61 28/46/63 36/54/64 35/55/62
f 28/46/63 29/45/65 37/53/66 36/54/64
f 29/45/65 30/44/67 38/52/68 37/53/66
f 30/44/67 31/43/69 39/51/70 38/52/68
f 31/43/69 32/50/71 40/58/72 39/51/70
f 32/50/71 25/49/57 33/57/60 40/58/72
f 33/57/60 34/56/59 42/64/73 41/65/74
f 34/56/59 35/55/62 43/63/75 42/64/73
f 35/55/62 36/54/64 44/62/76 43/63/75
f 36/54/64 37/53/66 45/61/77 44/62/76
f 37/53/66 38/52/68 46/60/78 45/61/77
f 38/52/68 39/51/70 47/59/79 46/60/78
f 39/51/70 40/58/72 48/66/80 47/59/79
f 40/58/72 33/57/60 41/65/74 48/66/80
s 1
f 2/2/2 1/1/1 49/67/81
f 3/3/5 2/2/2 49/67/81
f 4/4/7 3/3/5 49/67/81
f 5/5/9 4/4/7 49/67/81
f 6/6/11 5/5/9 49/67/81
f 7/7/13 6/6/11 49/67/81
f 8/8/15 7/7/13 49/67/81
f 1/1/1 8/8/15 49/67/81
s 2
f 41/65/74 42/64/73 50/68/82
f 42/64/73 43/63/75 50/68/82
f 43/63/75 44/62/76 50/68/82
f 44/62/76 45/61/77 50/68/82
f 45/61/77 46/60/78 50/68/82
f 46/60/78 47/59/79 50/68/82
f 47/59/79 48/66/80 50/68/82
f 48/66/80 41/65/74 50/68/82
